<svg width="28" height="24" viewBox="0 0 28 24" fill="none" xmlns="http://www.w3.org/2000/svg">
<path d="M24.6667 0.333336H3.33334C1.85334 0.333336 0.680005 1.52 0.680005 3L0.666672 19C0.666672 20.48 1.85334 21.6667 3.33334 21.6667H8.66667C9.40001 21.6667 10 21.0667 10 20.3333C10 19.6 9.40001 19 8.66667 19H3.33334V11H27.3333V3C27.3333 1.53334 26.1333 0.333336 24.6667 0.333336ZM24.6667 5.66667H3.33334V3H24.6667V5.66667ZM17.9067 20.56L15.08 17.7333C14.56 17.2133 13.72 17.2133 13.2 17.7333C12.68 18.2533 12.68 19.0933 13.2 19.6133L16.9733 23.3867C17.4933 23.9067 18.3333 23.9067 18.8533 23.3867L26.4 15.84C26.92 15.32 26.92 14.48 26.4 13.96C25.88 13.44 25.04 13.44 24.52 13.96L17.9067 20.56Z" fill="white"/>
</svg>
